<svg xmlns="http://www.w3.org/2000/svg" viewBox="0 0 1200 630">
  <defs>
    <linearGradient id="bg" x1="0%" y1="0%" x2="100%" y2="100%">
      <stop offset="0%" style="stop-color:#0f172a"/>
      <stop offset="100%" style="stop-color:#134e4a"/>
    </linearGradient>
    <linearGradient id="tealGrad" x1="0%" y1="0%" x2="0%" y2="100%">
      <stop offset="0%" style="stop-color:#14b8a6"/>
      <stop offset="100%" style="stop-color:#0d9488"/>
    </linearGradient>
  </defs>

  <!-- Background -->
  <rect width="1200" height="630" fill="url(#bg)"/>

  <!-- Subtle grid pattern -->
  <g opacity="0.04" stroke="#ffffff" stroke-width="1">
    <line x1="0" y1="0" x2="0" y2="630"/><line x1="60" y1="0" x2="60" y2="630"/>
    <line x1="120" y1="0" x2="120" y2="630"/><line x1="180" y1="0" x2="180" y2="630"/>
    <line x1="240" y1="0" x2="240" y2="630"/><line x1="300" y1="0" x2="300" y2="630"/>
    <line x1="360" y1="0" x2="360" y2="630"/><line x1="420" y1="0" x2="420" y2="630"/>
    <line x1="480" y1="0" x2="480" y2="630"/><line x1="540" y1="0" x2="540" y2="630"/>
    <line x1="600" y1="0" x2="600" y2="630"/><line x1="660" y1="0" x2="660" y2="630"/>
    <line x1="720" y1="0" x2="720" y2="630"/><line x1="780" y1="0" x2="780" y2="630"/>
    <line x1="840" y1="0" x2="840" y2="630"/><line x1="900" y1="0" x2="900" y2="630"/>
    <line x1="960" y1="0" x2="960" y2="630"/><line x1="1020" y1="0" x2="1020" y2="630"/>
    <line x1="1080" y1="0" x2="1080" y2="630"/><line x1="1140" y1="0" x2="1140" y2="630"/>
    <line x1="0" y1="60" x2="1200" y2="60"/><line x1="0" y1="120" x2="1200" y2="120"/>
    <line x1="0" y1="180" x2="1200" y2="180"/><line x1="0" y1="240" x2="1200" y2="240"/>
    <line x1="0" y1="300" x2="1200" y2="300"/><line x1="0" y1="360" x2="1200" y2="360"/>
    <line x1="0" y1="420" x2="1200" y2="420"/><line x1="0" y1="480" x2="1200" y2="480"/>
    <line x1="0" y1="540" x2="1200" y2="540"/><line x1="0" y1="600" x2="1200" y2="600"/>
  </g>

  <!-- Decorative background circles -->
  <circle cx="150" cy="530" r="180" fill="#0d9488" opacity="0.06"/>
  <circle cx="1050" cy="100" r="220" fill="#14b8a6" opacity="0.05"/>

  <!-- === ORGANIZATIONAL CHART === -->

  <!-- Top person (CEO level) -->
  <circle cx="600" cy="135" r="28" fill="url(#tealGrad)"/>
  <rect x="572" y="170" width="56" height="40" rx="12" fill="url(#tealGrad)"/>

  <!-- Connecting lines from top to middle row -->
  <line x1="600" y1="210" x2="600" y2="240" stroke="#14b8a6" stroke-width="3" opacity="0.6"/>
  <line x1="600" y1="240" x2="380" y2="240" stroke="#14b8a6" stroke-width="3" opacity="0.6"/>
  <line x1="600" y1="240" x2="820" y2="240" stroke="#14b8a6" stroke-width="3" opacity="0.6"/>
  <line x1="380" y1="240" x2="380" y2="265" stroke="#14b8a6" stroke-width="3" opacity="0.6"/>
  <line x1="600" y1="240" x2="600" y2="265" stroke="#14b8a6" stroke-width="3" opacity="0.6"/>
  <line x1="820" y1="240" x2="820" y2="265" stroke="#14b8a6" stroke-width="3" opacity="0.6"/>

  <!-- Middle row - 3 people (Manager level) -->
  <!-- Left manager -->
  <circle cx="380" cy="290" r="24" fill="#ffffff" opacity="0.85"/>
  <rect x="355" y="320" width="50" height="35" rx="10" fill="#ffffff" opacity="0.85"/>

  <!-- Center manager -->
  <circle cx="600" cy="290" r="24" fill="#ffffff" opacity="0.85"/>
  <rect x="575" y="320" width="50" height="35" rx="10" fill="#ffffff" opacity="0.85"/>

  <!-- Right manager -->
  <circle cx="820" cy="290" r="24" fill="#ffffff" opacity="0.85"/>
  <rect x="795" y="320" width="50" height="35" rx="10" fill="#ffffff" opacity="0.85"/>

  <!-- Connecting lines from middle to bottom row -->
  <line x1="380" y1="355" x2="380" y2="380" stroke="#ffffff" stroke-width="2" opacity="0.3"/>
  <line x1="380" y1="380" x2="300" y2="380" stroke="#ffffff" stroke-width="2" opacity="0.3"/>
  <line x1="380" y1="380" x2="460" y2="380" stroke="#ffffff" stroke-width="2" opacity="0.3"/>
  <line x1="300" y1="380" x2="300" y2="400" stroke="#ffffff" stroke-width="2" opacity="0.3"/>
  <line x1="460" y1="380" x2="460" y2="400" stroke="#ffffff" stroke-width="2" opacity="0.3"/>

  <line x1="820" y1="355" x2="820" y2="380" stroke="#ffffff" stroke-width="2" opacity="0.3"/>
  <line x1="820" y1="380" x2="740" y2="380" stroke="#ffffff" stroke-width="2" opacity="0.3"/>
  <line x1="820" y1="380" x2="900" y2="380" stroke="#ffffff" stroke-width="2" opacity="0.3"/>
  <line x1="740" y1="380" x2="740" y2="400" stroke="#ffffff" stroke-width="2" opacity="0.3"/>
  <line x1="900" y1="380" x2="900" y2="400" stroke="#ffffff" stroke-width="2" opacity="0.3"/>

  <!-- Bottom row - 4 smaller people (Team level) -->
  <circle cx="300" cy="420" r="18" fill="#ffffff" opacity="0.45"/>
  <rect x="282" y="443" width="36" height="26" rx="8" fill="#ffffff" opacity="0.45"/>

  <circle cx="460" cy="420" r="18" fill="#ffffff" opacity="0.45"/>
  <rect x="442" y="443" width="36" height="26" rx="8" fill="#ffffff" opacity="0.45"/>

  <circle cx="740" cy="420" r="18" fill="#ffffff" opacity="0.45"/>
  <rect x="722" y="443" width="36" height="26" rx="8" fill="#ffffff" opacity="0.45"/>

  <circle cx="900" cy="420" r="18" fill="#ffffff" opacity="0.45"/>
  <rect x="882" y="443" width="36" height="26" rx="8" fill="#ffffff" opacity="0.45"/>

  <!-- === CALENDAR (bottom left) === -->
  <rect x="80" y="320" width="140" height="130" rx="12" fill="#ffffff" opacity="0.12"/>
  <rect x="80" y="320" width="140" height="32" rx="12" fill="url(#tealGrad)" opacity="0.8"/>
  <!-- Calendar dots (days) -->
  <circle cx="108" cy="376" r="6" fill="#ffffff" opacity="0.5"/>
  <circle cx="138" cy="376" r="6" fill="#ffffff" opacity="0.5"/>
  <circle cx="168" cy="376" r="6" fill="#14b8a6" opacity="0.9"/>
  <circle cx="198" cy="376" r="6" fill="#ffffff" opacity="0.5"/>
  <circle cx="108" cy="406" r="6" fill="#ffffff" opacity="0.5"/>
  <circle cx="138" cy="406" r="6" fill="#14b8a6" opacity="0.9"/>
  <circle cx="168" cy="406" r="6" fill="#ffffff" opacity="0.5"/>
  <circle cx="198" cy="406" r="6" fill="#ffffff" opacity="0.5"/>
  <circle cx="108" cy="436" r="6" fill="#ffffff" opacity="0.3"/>
  <circle cx="138" cy="436" r="6" fill="#ffffff" opacity="0.3"/>
  <circle cx="168" cy="436" r="6" fill="#ffffff" opacity="0.3"/>
  <circle cx="198" cy="436" r="6" fill="#ffffff" opacity="0.3"/>

  <!-- === CHECKLIST / DOCUMENT (bottom right) === -->
  <rect x="980" y="310" width="140" height="170" rx="12" fill="#ffffff" opacity="0.12"/>
  <!-- Checklist lines -->
  <rect x="1005" y="335" width="14" height="14" rx="3" fill="url(#tealGrad)" opacity="0.8"/>
  <rect x="1028" y="339" width="70" height="6" rx="3" fill="#ffffff" opacity="0.4"/>
  <rect x="1005" y="365" width="14" height="14" rx="3" fill="url(#tealGrad)" opacity="0.8"/>
  <rect x="1028" y="369" width="55" height="6" rx="3" fill="#ffffff" opacity="0.4"/>
  <rect x="1005" y="395" width="14" height="14" rx="3" fill="#ffffff" opacity="0.2"/>
  <rect x="1028" y="399" width="65" height="6" rx="3" fill="#ffffff" opacity="0.25"/>
  <rect x="1005" y="425" width="14" height="14" rx="3" fill="#ffffff" opacity="0.2"/>
  <rect x="1028" y="429" width="50" height="6" rx="3" fill="#ffffff" opacity="0.25"/>
  <rect x="1005" y="455" width="14" height="14" rx="3" fill="#ffffff" opacity="0.2"/>
  <rect x="1028" y="459" width="60" height="6" rx="3" fill="#ffffff" opacity="0.25"/>

  <!-- === ID BADGE (top left) === -->
  <rect x="80" y="100" width="120" height="160" rx="14" fill="#ffffff" opacity="0.12"/>
  <rect x="80" y="100" width="120" height="40" rx="14" fill="url(#tealGrad)" opacity="0.6"/>
  <circle cx="140" cy="175" r="22" fill="#ffffff" opacity="0.5"/>
  <rect x="110" y="210" width="60" height="6" rx="3" fill="#ffffff" opacity="0.35"/>
  <rect x="118" y="226" width="44" height="5" rx="2.5" fill="#ffffff" opacity="0.2"/>

  <!-- === CLOCK (top right) === -->
  <circle cx="1050" cy="180" r="55" fill="#ffffff" opacity="0.1" stroke="#14b8a6" stroke-width="3" opacity="0.5"/>
  <circle cx="1050" cy="180" r="4" fill="#14b8a6" opacity="0.8"/>
  <!-- Clock hands -->
  <line x1="1050" y1="180" x2="1050" y2="142" stroke="#ffffff" stroke-width="3" stroke-linecap="round" opacity="0.7"/>
  <line x1="1050" y1="180" x2="1078" y2="195" stroke="#14b8a6" stroke-width="2.5" stroke-linecap="round" opacity="0.8"/>
  <!-- Hour markers -->
  <circle cx="1050" cy="135" r="3" fill="#ffffff" opacity="0.4"/>
  <circle cx="1095" cy="180" r="3" fill="#ffffff" opacity="0.4"/>
  <circle cx="1050" cy="225" r="3" fill="#ffffff" opacity="0.4"/>
  <circle cx="1005" cy="180" r="3" fill="#ffffff" opacity="0.4"/>

  <!-- Scattered decorative dots -->
  <circle cx="540" cy="520" r="4" fill="#14b8a6" opacity="0.3"/>
  <circle cx="660" cy="530" r="3" fill="#14b8a6" opacity="0.2"/>
  <circle cx="580" cy="90" r="3" fill="#ffffff" opacity="0.15"/>
  <circle cx="250" cy="520" r="5" fill="#14b8a6" opacity="0.15"/>
  <circle cx="950" cy="520" r="4" fill="#14b8a6" opacity="0.2"/>
</svg>