<svg xmlns="http://www.w3.org/2000/svg" viewBox="0 0 1200 630">
  <defs>
    <linearGradient id="bg" x1="0%" y1="0%" x2="100%" y2="100%">
      <stop offset="0%" style="stop-color:#0c4a6e;stop-opacity:1"/>
      <stop offset="100%" style="stop-color:#064e6e;stop-opacity:1"/>
    </linearGradient>
  </defs>
  <!-- Background -->
  <rect width="1200" height="630" fill="url(#bg)"/>
  <!-- Decorative -->
  <circle cx="100" cy="100" r="200" fill="#0891b2" opacity="0.06"/>
  <circle cx="1100" cy="550" r="180" fill="#0891b2" opacity="0.05"/>
  <!-- Kanban Board -->
  <g transform="translate(280, 70)">
    <!-- Board outline -->
    <rect x="0" y="0" width="640" height="360" rx="12" fill="rgba(255,255,255,0.04)" stroke="rgba(255,255,255,0.1)" stroke-width="1.5"/>
    <!-- Column headers -->
    <rect x="15" y="15" width="190" height="35" rx="6" fill="rgba(255,255,255,0.08)"/>
    <text x="110" y="38" font-family="system-ui, sans-serif" font-size="13" fill="rgba(255,255,255,0.5)" text-anchor="middle" font-weight="600">TO DO</text>
    <rect x="225" y="15" width="190" height="35" rx="6" fill="rgba(8,145,178,0.15)"/>
    <text x="320" y="38" font-family="system-ui, sans-serif" font-size="13" fill="#0891b2" text-anchor="middle" font-weight="600">IN PROGRESS</text>
    <rect x="435" y="15" width="190" height="35" rx="6" fill="rgba(255,255,255,0.08)"/>
    <text x="530" y="38" font-family="system-ui, sans-serif" font-size="13" fill="rgba(255,255,255,0.5)" text-anchor="middle" font-weight="600">DONE</text>
    <!-- Column dividers -->
    <line x1="213" y1="60" x2="213" y2="345" stroke="rgba(255,255,255,0.06)" stroke-width="1"/>
    <line x1="426" y1="60" x2="426" y2="345" stroke="rgba(255,255,255,0.06)" stroke-width="1"/>
    <!-- To Do cards -->
    <rect x="25" y="65" width="170" height="55" rx="6" fill="rgba(255,255,255,0.07)" stroke="rgba(255,255,255,0.1)" stroke-width="1"/>
    <line x1="35" y1="82" x2="120" y2="82" stroke="rgba(255,255,255,0.3)" stroke-width="1.5"/>
    <line x1="35" y1="97" x2="90" y2="97" stroke="rgba(255,255,255,0.15)" stroke-width="1.5"/>
    <circle cx="175" cy="105" r="4" fill="rgba(255,255,255,0.2)"/>
    <rect x="25" y="130" width="170" height="55" rx="6" fill="rgba(255,255,255,0.07)" stroke="rgba(255,255,255,0.1)" stroke-width="1"/>
    <line x1="35" y1="147" x2="140" y2="147" stroke="rgba(255,255,255,0.3)" stroke-width="1.5"/>
    <line x1="35" y1="162" x2="100" y2="162" stroke="rgba(255,255,255,0.15)" stroke-width="1.5"/>
    <circle cx="175" cy="170" r="4" fill="rgba(255,255,255,0.2)"/>
    <rect x="25" y="195" width="170" height="55" rx="6" fill="rgba(255,255,255,0.05)" stroke="rgba(255,255,255,0.08)" stroke-width="1"/>
    <line x1="35" y1="212" x2="110" y2="212" stroke="rgba(255,255,255,0.2)" stroke-width="1.5"/>
    <line x1="35" y1="227" x2="80" y2="227" stroke="rgba(255,255,255,0.12)" stroke-width="1.5"/>
    <!-- In Progress cards (highlighted) -->
    <rect x="235" y="65" width="170" height="55" rx="6" fill="rgba(8,145,178,0.12)" stroke="#0891b2" stroke-width="1.5" opacity="0.8"/>
    <line x1="245" y1="82" x2="330" y2="82" stroke="#0891b2" stroke-width="1.5" opacity="0.7"/>
    <line x1="245" y1="97" x2="300" y2="97" stroke="#0891b2" stroke-width="1.5" opacity="0.4"/>
    <rect x="370" y="100" width="25" height="10" rx="5" fill="#0891b2" opacity="0.4"/>
    <rect x="235" y="130" width="170" height="55" rx="6" fill="rgba(8,145,178,0.08)" stroke="#0891b2" stroke-width="1" opacity="0.6"/>
    <line x1="245" y1="147" x2="350" y2="147" stroke="#0891b2" stroke-width="1.5" opacity="0.5"/>
    <line x1="245" y1="162" x2="310" y2="162" stroke="#0891b2" stroke-width="1.5" opacity="0.3"/>
    <!-- Done cards -->
    <rect x="445" y="65" width="170" height="55" rx="6" fill="rgba(255,255,255,0.05)" stroke="rgba(255,255,255,0.08)" stroke-width="1"/>
    <line x1="455" y1="82" x2="530" y2="82" stroke="rgba(255,255,255,0.2)" stroke-width="1.5"/>
    <!-- Checkmark -->
    <polyline points="580,78 590,88 605,70" fill="none" stroke="#0891b2" stroke-width="2" opacity="0.5"/>
    <rect x="445" y="130" width="170" height="55" rx="6" fill="rgba(255,255,255,0.05)" stroke="rgba(255,255,255,0.08)" stroke-width="1"/>
    <line x1="455" y1="147" x2="560" y2="147" stroke="rgba(255,255,255,0.2)" stroke-width="1.5"/>
    <polyline points="580,143 590,153 605,135" fill="none" stroke="#0891b2" stroke-width="2" opacity="0.5"/>
    <rect x="445" y="195" width="170" height="55" rx="6" fill="rgba(255,255,255,0.05)" stroke="rgba(255,255,255,0.08)" stroke-width="1"/>
    <line x1="455" y1="212" x2="540" y2="212" stroke="rgba(255,255,255,0.2)" stroke-width="1.5"/>
    <polyline points="580,208 590,218 605,200" fill="none" stroke="#0891b2" stroke-width="2" opacity="0.5"/>
    <rect x="445" y="260" width="170" height="55" rx="6" fill="rgba(255,255,255,0.04)" stroke="rgba(255,255,255,0.06)" stroke-width="1"/>
    <line x1="455" y1="277" x2="520" y2="277" stroke="rgba(255,255,255,0.15)" stroke-width="1.5"/>
    <polyline points="580,273 590,283 605,265" fill="none" stroke="#0891b2" stroke-width="2" opacity="0.4"/>
  </g>
  <!-- Title -->
  <text x="600" y="510" font-family="system-ui, -apple-system, Segoe UI, sans-serif" font-size="46" font-weight="700" fill="#ffffff" text-anchor="middle">Projectmanagement</text>
  <text x="600" y="555" font-family="system-ui, -apple-system, Segoe UI, sans-serif" font-size="22" fill="#0891b2" text-anchor="middle" letter-spacing="2">PLANNING &amp; SAMENWERKING</text>
  <!-- Bottom accent line -->
  <rect x="420" y="580" width="360" height="3" rx="1.5" fill="#0891b2" opacity="0.6"/>
</svg>