<svg xmlns="http://www.w3.org/2000/svg" viewBox="0 0 1200 630" font-family="Inter, -apple-system, BlinkMacSystemFont, 'Segoe UI', sans-serif">
  <defs>
    <linearGradient id="bg2" x1="0" y1="0" x2="0" y2="1"><stop offset="0%" stop-color="#f8fafc"/><stop offset="100%" stop-color="#ffffff"/></linearGradient>
  </defs>
  <rect width="1200" height="630" fill="url(#bg2)" rx="12"/>
  <rect x="0" y="0" width="1200" height="4" fill="#0f2439"/>
  <text x="600" y="55" text-anchor="middle" font-size="26" font-weight="700" fill="#0f2439">Trustpilot scores kassasystemen horeca 2026</text>
  <text x="600" y="82" text-anchor="middle" font-size="15" fill="#64748b">Gebruikersbeoordelingen van 5 systemen</text>

  <!-- Square 4.2 -->
  <text x="200" y="155" text-anchor="end" font-size="17" font-weight="600" fill="#1e293b">Square</text>
  <text x="220" y="155" font-size="28" fill="#f59e0b">&#9733;&#9733;&#9733;&#9733;</text><text x="348" y="155" font-size="28" fill="#e2e8f0">&#9733;</text>
  <text x="400" y="155" font-size="20" font-weight="700" fill="#0f2439">4.2</text><text x="435" y="155" font-size="14" fill="#64748b">/5</text>
  <text x="470" y="155" font-size="14" fill="#94a3b8">(7.100+ reviews)</text>
  <rect x="220" y="165" width="660" height="6" rx="3" fill="#e2e8f0"/><rect x="220" y="165" width="554" height="6" rx="3" fill="#10b981"/>

  <!-- Lightspeed Restaurant 4.2 -->
  <text x="200" y="235" text-anchor="end" font-size="17" font-weight="600" fill="#1e293b">Lightspeed Restaurant</text>
  <text x="220" y="235" font-size="28" fill="#f59e0b">&#9733;&#9733;&#9733;&#9733;</text><text x="348" y="235" font-size="28" fill="#e2e8f0">&#9733;</text>
  <text x="400" y="235" font-size="20" font-weight="700" fill="#0f2439">4.2</text><text x="435" y="235" font-size="14" fill="#64748b">/5</text>
  <text x="470" y="235" font-size="14" fill="#94a3b8">(2.400+ reviews)</text>
  <rect x="220" y="245" width="660" height="6" rx="3" fill="#e2e8f0"/><rect x="220" y="245" width="554" height="6" rx="3" fill="#10b981"/>

  <!-- Zettle by PayPal 3.3 -->
  <text x="200" y="315" text-anchor="end" font-size="17" font-weight="600" fill="#1e293b">Zettle by PayPal</text>
  <text x="220" y="315" font-size="28" fill="#f59e0b">&#9733;&#9733;&#9733;</text><text x="316" y="315" font-size="28" fill="#e2e8f0">&#9733;&#9733;</text>
  <text x="400" y="315" font-size="20" font-weight="700" fill="#0f2439">3.3</text><text x="435" y="315" font-size="14" fill="#64748b">/5</text>
  <text x="470" y="315" font-size="14" fill="#94a3b8">(5.500+ reviews)</text>
  <rect x="220" y="325" width="660" height="6" rx="3" fill="#e2e8f0"/><rect x="220" y="325" width="436" height="6" rx="3" fill="#f59e0b"/>

  <!-- Orderbird 2.1 -->
  <text x="200" y="395" text-anchor="end" font-size="17" font-weight="600" fill="#1e293b">Orderbird</text>
  <text x="220" y="395" font-size="28" fill="#f59e0b">&#9733;&#9733;</text><text x="284" y="395" font-size="28" fill="#e2e8f0">&#9733;&#9733;&#9733;</text>
  <text x="400" y="395" font-size="20" font-weight="700" fill="#0f2439">2.1</text><text x="435" y="395" font-size="14" fill="#64748b">/5</text>
  <text x="470" y="395" font-size="14" fill="#94a3b8">(35 reviews)</text>
  <rect x="220" y="405" width="660" height="6" rx="3" fill="#e2e8f0"/><rect x="220" y="405" width="277" height="6" rx="3" fill="#ef4444"/>

  <!-- Untill — geen reviews -->
  <text x="200" y="475" text-anchor="end" font-size="17" font-weight="600" fill="#1e293b">Untill</text>
  <text x="220" y="475" font-size="16" font-style="italic" fill="#94a3b8">Geen Trustpilot-reviews beschikbaar</text>

  <text x="600" y="580" text-anchor="middle" font-size="13" fill="#94a3b8">Trustpilot scores gecheckt maart 2026 | bedrijfssoftwaregids.nl</text>
</svg>