<svg xmlns="http://www.w3.org/2000/svg" viewBox="0 0 1200 630" font-family="Inter, -apple-system, BlinkMacSystemFont, 'Segoe UI', sans-serif">
  <defs>
    <linearGradient id="bg2" x1="0" y1="0" x2="0" y2="1"><stop offset="0%" stop-color="#f8fafc"/><stop offset="100%" stop-color="#ffffff"/></linearGradient>
  </defs>
  <rect width="1200" height="630" fill="url(#bg2)" rx="12"/>
  <rect x="0" y="0" width="1200" height="4" fill="#0f2439"/>
  <text x="600" y="55" text-anchor="middle" font-size="26" font-weight="700" fill="#0f2439">Trustpilot scores kassasystemen horeca 2026</text>
  <text x="600" y="82" text-anchor="middle" font-size="15" fill="#64748b">Gebruikersbeoordelingen van 4 systemen met Trustpilot-profiel</text>

  <!-- Square 4.2 -->
  <text x="200" y="160" text-anchor="end" font-size="17" font-weight="600" fill="#1e293b">Square</text>
  <text x="220" y="160" font-size="28" fill="#f59e0b">&#9733;&#9733;&#9733;&#9733;</text><text x="348" y="160" font-size="28" fill="#e2e8f0">&#9733;</text>
  <text x="400" y="160" font-size="20" font-weight="700" fill="#0f2439">4.2</text><text x="435" y="160" font-size="14" fill="#64748b">/5</text>
  <text x="470" y="160" font-size="14" fill="#94a3b8">(7.100+ reviews)</text>
  <rect x="220" y="170" width="660" height="6" rx="3" fill="#e2e8f0"/><rect x="220" y="170" width="554" height="6" rx="3" fill="#10b981"/>

  <!-- Lightspeed 4.2 -->
  <text x="200" y="240" text-anchor="end" font-size="17" font-weight="600" fill="#1e293b">Lightspeed</text>
  <text x="220" y="240" font-size="28" fill="#f59e0b">&#9733;&#9733;&#9733;&#9733;</text><text x="348" y="240" font-size="28" fill="#e2e8f0">&#9733;</text>
  <text x="400" y="240" font-size="20" font-weight="700" fill="#0f2439">4.2</text><text x="435" y="240" font-size="14" fill="#64748b">/5</text>
  <text x="470" y="240" font-size="14" fill="#94a3b8">(2.400+ reviews)</text>
  <rect x="220" y="250" width="660" height="6" rx="3" fill="#e2e8f0"/><rect x="220" y="250" width="554" height="6" rx="3" fill="#10b981"/>

  <!-- Zettle 3.3 -->
  <text x="200" y="320" text-anchor="end" font-size="17" font-weight="600" fill="#1e293b">Zettle by PayPal</text>
  <text x="220" y="320" font-size="28" fill="#f59e0b">&#9733;&#9733;&#9733;</text><text x="316" y="320" font-size="28" fill="#e2e8f0">&#9733;&#9733;</text>
  <text x="400" y="320" font-size="20" font-weight="700" fill="#0f2439">3.3</text><text x="435" y="320" font-size="14" fill="#64748b">/5</text>
  <text x="470" y="320" font-size="14" fill="#94a3b8">(5.500+ reviews)</text>
  <rect x="220" y="330" width="660" height="6" rx="3" fill="#e2e8f0"/><rect x="220" y="330" width="436" height="6" rx="3" fill="#f59e0b"/>

  <!-- Orderbird 2.1 -->
  <text x="200" y="400" text-anchor="end" font-size="17" font-weight="600" fill="#1e293b">Orderbird</text>
  <text x="220" y="400" font-size="28" fill="#f59e0b">&#9733;&#9733;</text><text x="284" y="400" font-size="28" fill="#e2e8f0">&#9733;&#9733;&#9733;</text>
  <text x="400" y="400" font-size="20" font-weight="700" fill="#0f2439">2.1</text><text x="435" y="400" font-size="14" fill="#64748b">/5</text>
  <text x="470" y="400" font-size="14" fill="#94a3b8">(35 reviews)</text>
  <rect x="220" y="410" width="660" height="6" rx="3" fill="#e2e8f0"/><rect x="220" y="410" width="277" height="6" rx="3" fill="#ef4444"/>

  <!-- Untill - geen profiel -->
  <text x="200" y="480" text-anchor="end" font-size="17" font-weight="600" fill="#1e293b">Untill</text>
  <text x="220" y="480" font-size="16" fill="#94a3b8">Geen Trustpilot-profiel</text>
  <rect x="220" y="490" width="660" height="6" rx="3" fill="#e2e8f0"/>

  <text x="600" y="590" text-anchor="middle" font-size="13" fill="#94a3b8">Trustpilot scores gecheckt maart 2026 | bedrijfssoftwaregids.nl</text>
</svg>
