<svg xmlns="http://www.w3.org/2000/svg" viewBox="0 0 1200 630" font-family="Inter, -apple-system, BlinkMacSystemFont, 'Segoe UI', sans-serif">
  <defs>
    <linearGradient id="bg2" x1="0" y1="0" x2="0" y2="1"><stop offset="0%" stop-color="#f8fafc"/><stop offset="100%" stop-color="#ffffff"/></linearGradient>
  </defs>
  <rect width="1200" height="630" fill="url(#bg2)" rx="12"/>
  <rect x="0" y="0" width="1200" height="4" fill="#0f2439"/>
  <text x="600" y="55" text-anchor="middle" font-size="26" font-weight="700" fill="#0f2439">Trustpilot scores CRM software 2026</text>
  <text x="600" y="82" text-anchor="middle" font-size="15" fill="#64748b">Gebruikersbeoordelingen van alle 7 systemen</text>

  <!-- Pipedrive 4.5 -->
  <text x="200" y="140" text-anchor="end" font-size="17" font-weight="600" fill="#1e293b">Pipedrive</text>
  <text x="220" y="140" font-size="28" fill="#f59e0b">&#9733;&#9733;&#9733;&#9733;</text><text x="348" y="140" font-size="28" fill="#e2e8f0">&#9733;</text>
  <text x="400" y="140" font-size="20" font-weight="700" fill="#0f2439">4.5</text><text x="435" y="140" font-size="14" fill="#64748b">/5</text>
  <text x="470" y="140" font-size="14" fill="#94a3b8">(3.200+ reviews)</text>
  <rect x="220" y="150" width="660" height="6" rx="3" fill="#e2e8f0"/><rect x="220" y="150" width="594" height="6" rx="3" fill="#10b981"/>

  <!-- Teamleader 4.4 -->
  <text x="200" y="200" text-anchor="end" font-size="17" font-weight="600" fill="#1e293b">Teamleader</text>
  <text x="220" y="200" font-size="28" fill="#f59e0b">&#9733;&#9733;&#9733;&#9733;</text><text x="348" y="200" font-size="28" fill="#e2e8f0">&#9733;</text>
  <text x="400" y="200" font-size="20" font-weight="700" fill="#0f2439">4.4</text><text x="435" y="200" font-size="14" fill="#64748b">/5</text>
  <text x="470" y="200" font-size="14" fill="#94a3b8">(265 reviews)</text>
  <rect x="220" y="210" width="660" height="6" rx="3" fill="#e2e8f0"/><rect x="220" y="210" width="581" height="6" rx="3" fill="#10b981"/>

  <!-- Monday 3.1 -->
  <text x="200" y="260" text-anchor="end" font-size="17" font-weight="600" fill="#1e293b">Monday CRM</text>
  <text x="220" y="260" font-size="28" fill="#f59e0b">&#9733;&#9733;&#9733;</text><text x="316" y="260" font-size="28" fill="#e2e8f0">&#9733;&#9733;</text>
  <text x="400" y="260" font-size="20" font-weight="700" fill="#0f2439">3.1</text><text x="435" y="260" font-size="14" fill="#64748b">/5</text>
  <text x="470" y="260" font-size="14" fill="#94a3b8">(3.350+ reviews)</text>
  <rect x="220" y="270" width="660" height="6" rx="3" fill="#e2e8f0"/><rect x="220" y="270" width="409" height="6" rx="3" fill="#f59e0b"/>

  <!-- Exact Online 2.6 -->
  <text x="200" y="320" text-anchor="end" font-size="17" font-weight="600" fill="#1e293b">Exact Online</text>
  <text x="220" y="320" font-size="28" fill="#f59e0b">&#9733;&#9733;</text><text x="284" y="320" font-size="28" fill="#e2e8f0">&#9733;&#9733;&#9733;</text>
  <text x="400" y="320" font-size="20" font-weight="700" fill="#0f2439">2.6</text><text x="435" y="320" font-size="14" fill="#64748b">/5</text>
  <text x="470" y="320" font-size="14" fill="#94a3b8">(641 reviews)</text>
  <rect x="220" y="330" width="660" height="6" rx="3" fill="#e2e8f0"/><rect x="220" y="330" width="343" height="6" rx="3" fill="#ef4444"/>

  <!-- HubSpot 1.9 -->
  <text x="200" y="380" text-anchor="end" font-size="17" font-weight="600" fill="#1e293b">HubSpot CRM</text>
  <text x="220" y="380" font-size="28" fill="#f59e0b">&#9733;</text><text x="252" y="380" font-size="28" fill="#e2e8f0">&#9733;&#9733;&#9733;&#9733;</text>
  <text x="400" y="380" font-size="20" font-weight="700" fill="#0f2439">1.9</text><text x="435" y="380" font-size="14" fill="#64748b">/5</text>
  <text x="470" y="380" font-size="14" fill="#94a3b8">(960 reviews)</text>
  <rect x="220" y="390" width="660" height="6" rx="3" fill="#e2e8f0"/><rect x="220" y="390" width="251" height="6" rx="3" fill="#ef4444"/>

  <!-- Gripp 1.9 -->
  <text x="200" y="440" text-anchor="end" font-size="17" font-weight="600" fill="#1e293b">Gripp</text>
  <text x="220" y="440" font-size="28" fill="#f59e0b">&#9733;</text><text x="252" y="440" font-size="28" fill="#e2e8f0">&#9733;&#9733;&#9733;&#9733;</text>
  <text x="400" y="440" font-size="20" font-weight="700" fill="#0f2439">1.9</text><text x="435" y="440" font-size="14" fill="#64748b">/5</text>
  <text x="470" y="440" font-size="14" fill="#94a3b8">(20 reviews)</text>
  <rect x="220" y="450" width="660" height="6" rx="3" fill="#e2e8f0"/><rect x="220" y="450" width="251" height="6" rx="3" fill="#ef4444"/>

  <!-- Salesforce 1.5 -->
  <text x="200" y="500" text-anchor="end" font-size="17" font-weight="600" fill="#1e293b">Salesforce</text>
  <text x="220" y="500" font-size="28" fill="#f59e0b">&#9733;</text><text x="252" y="500" font-size="28" fill="#e2e8f0">&#9733;&#9733;&#9733;&#9733;</text>
  <text x="400" y="500" font-size="20" font-weight="700" fill="#0f2439">1.5</text><text x="435" y="500" font-size="14" fill="#64748b">/5</text>
  <text x="470" y="500" font-size="14" fill="#94a3b8">(610 reviews)</text>
  <rect x="220" y="510" width="660" height="6" rx="3" fill="#e2e8f0"/><rect x="220" y="510" width="198" height="6" rx="3" fill="#ef4444"/>

  <text x="600" y="590" text-anchor="middle" font-size="13" fill="#94a3b8">Trustpilot scores gecheckt februari 2026 | bedrijfssoftwaregids.nl</text>
</svg>