<svg xmlns="http://www.w3.org/2000/svg" viewBox="0 0 1200 630" font-family="Inter, -apple-system, BlinkMacSystemFont, 'Segoe UI', sans-serif">
  <defs>
    <linearGradient id="bg2" x1="0" y1="0" x2="0" y2="1"><stop offset="0%" stop-color="#f8fafc"/><stop offset="100%" stop-color="#ffffff"/></linearGradient>
  </defs>
  <rect width="1200" height="630" fill="url(#bg2)" rx="12"/>
  <rect x="0" y="0" width="1200" height="4" fill="#0f2439"/>
  <text x="600" y="55" text-anchor="middle" font-size="26" font-weight="700" fill="#0f2439">Trustpilot scores webshop software 2026</text>
  <text x="600" y="82" text-anchor="middle" font-size="15" fill="#64748b">Gebruikersbeoordelingen van alle 7 systemen</text>

  <!-- Lightspeed 4.2 -->
  <text x="200" y="130" text-anchor="end" font-size="17" font-weight="600" fill="#1e293b">Lightspeed eCom</text>
  <text x="220" y="130" font-size="28" fill="#f59e0b">&#9733;&#9733;&#9733;&#9733;</text><text x="348" y="130" font-size="28" fill="#e2e8f0">&#9733;</text>
  <text x="400" y="130" font-size="20" font-weight="700" fill="#0f2439">4.2</text><text x="435" y="130" font-size="14" fill="#64748b">/5</text>
  <text x="470" y="130" font-size="14" fill="#94a3b8">(2.404 reviews)</text>
  <rect x="220" y="140" width="660" height="6" rx="3" fill="#e2e8f0"/><rect x="220" y="140" width="554" height="6" rx="3" fill="#10b981"/>

  <!-- CCV Shop 3.0 -->
  <text x="200" y="195" text-anchor="end" font-size="17" font-weight="600" fill="#1e293b">CCV Shop</text>
  <text x="220" y="195" font-size="28" fill="#f59e0b">&#9733;&#9733;&#9733;</text><text x="316" y="195" font-size="28" fill="#e2e8f0">&#9733;&#9733;</text>
  <text x="400" y="195" font-size="20" font-weight="700" fill="#0f2439">3.0</text><text x="435" y="195" font-size="14" fill="#64748b">/5</text>
  <text x="470" y="195" font-size="14" fill="#94a3b8">(15 reviews)</text>
  <rect x="220" y="205" width="660" height="6" rx="3" fill="#e2e8f0"/><rect x="220" y="205" width="396" height="6" rx="3" fill="#f59e0b"/>

  <!-- WooCommerce 1.9 -->
  <text x="200" y="260" text-anchor="end" font-size="17" font-weight="600" fill="#1e293b">WooCommerce</text>
  <text x="220" y="260" font-size="28" fill="#f59e0b">&#9733;</text><text x="252" y="260" font-size="28" fill="#e2e8f0">&#9733;&#9733;&#9733;&#9733;</text>
  <text x="400" y="260" font-size="20" font-weight="700" fill="#0f2439">1.9</text><text x="435" y="260" font-size="14" fill="#64748b">/5</text>
  <text x="470" y="260" font-size="14" fill="#94a3b8">(132 reviews)</text>
  <rect x="220" y="270" width="660" height="6" rx="3" fill="#e2e8f0"/><rect x="220" y="270" width="251" height="6" rx="3" fill="#ef4444"/>

  <!-- Shopify 1.3 -->
  <text x="200" y="325" text-anchor="end" font-size="17" font-weight="600" fill="#1e293b">Shopify</text>
  <text x="220" y="325" font-size="28" fill="#f59e0b">&#9733;</text><text x="252" y="325" font-size="28" fill="#e2e8f0">&#9733;&#9733;&#9733;&#9733;</text>
  <text x="400" y="325" font-size="20" font-weight="700" fill="#0f2439">1.3</text><text x="435" y="325" font-size="14" fill="#64748b">/5</text>
  <text x="470" y="325" font-size="14" fill="#94a3b8">(4.350 reviews)*</text>
  <rect x="220" y="335" width="660" height="6" rx="3" fill="#e2e8f0"/><rect x="220" y="335" width="172" height="6" rx="3" fill="#ef4444"/>

  <!-- BigCommerce 1.3 -->
  <text x="200" y="390" text-anchor="end" font-size="17" font-weight="600" fill="#1e293b">BigCommerce</text>
  <text x="220" y="390" font-size="28" fill="#f59e0b">&#9733;</text><text x="252" y="390" font-size="28" fill="#e2e8f0">&#9733;&#9733;&#9733;&#9733;</text>
  <text x="400" y="390" font-size="20" font-weight="700" fill="#0f2439">1.3</text><text x="435" y="390" font-size="14" fill="#64748b">/5</text>
  <text x="470" y="390" font-size="14" fill="#94a3b8">(448 reviews)</text>
  <rect x="220" y="400" width="660" height="6" rx="3" fill="#e2e8f0"/><rect x="220" y="400" width="172" height="6" rx="3" fill="#ef4444"/>

  <!-- Magento — -->
  <text x="200" y="455" text-anchor="end" font-size="17" font-weight="600" fill="#1e293b">Magento</text>
  <text x="220" y="455" font-size="28" fill="#e2e8f0">&#9733;&#9733;&#9733;&#9733;&#9733;</text>
  <text x="400" y="455" font-size="17" font-weight="600" fill="#94a3b8">Geen reviews</text>
  <rect x="220" y="465" width="660" height="6" rx="3" fill="#e2e8f0"/>

  <!-- Acendy — -->
  <text x="200" y="520" text-anchor="end" font-size="17" font-weight="600" fill="#1e293b">Acendy</text>
  <text x="220" y="520" font-size="28" fill="#e2e8f0">&#9733;&#9733;&#9733;&#9733;&#9733;</text>
  <text x="400" y="520" font-size="17" font-weight="600" fill="#94a3b8">Geen reviews</text>
  <rect x="220" y="530" width="660" height="6" rx="3" fill="#e2e8f0"/>

  <text x="600" y="570" text-anchor="middle" font-size="12" fill="#94a3b8">*Shopify's lage score is typische review-bias: ontevreden gebruikers schrijven sneller een review</text>
  <text x="600" y="595" text-anchor="middle" font-size="13" fill="#94a3b8">Trustpilot scores gecheckt maart 2026 | bedrijfssoftwaregids.nl</text>
</svg>