<svg xmlns="http://www.w3.org/2000/svg" viewBox="0 0 1200 630" font-family="Inter, -apple-system, BlinkMacSystemFont, 'Segoe UI', sans-serif">
  <defs>
    <linearGradient id="bg2" x1="0" y1="0" x2="0" y2="1"><stop offset="0%" stop-color="#f8fafc"/><stop offset="100%" stop-color="#ffffff"/></linearGradient>
  </defs>
  <rect width="1200" height="630" fill="url(#bg2)" rx="12"/>
  <rect x="0" y="0" width="1200" height="4" fill="#0f2439"/>
  <text x="600" y="55" text-anchor="middle" font-size="26" font-weight="700" fill="#0f2439">Trustpilot scores chatbot software 2026</text>
  <text x="600" y="82" text-anchor="middle" font-size="15" fill="#64748b">Gebruikersbeoordelingen van alle 5 systemen</text>

  <!-- Tidio 3.7 -->
  <text x="200" y="150" text-anchor="end" font-size="17" font-weight="600" fill="#1e293b">Tidio</text>
  <text x="220" y="150" font-size="28" fill="#f59e0b">&#9733;&#9733;&#9733;</text><text x="316" y="150" font-size="28" fill="#e2e8f0">&#9733;&#9733;</text>
  <text x="400" y="150" font-size="20" font-weight="700" fill="#0f2439">3.7</text><text x="435" y="150" font-size="14" fill="#64748b">/5</text>
  <text x="470" y="150" font-size="14" fill="#94a3b8">(224 reviews)</text>
  <rect x="220" y="160" width="660" height="6" rx="3" fill="#e2e8f0"/><rect x="220" y="160" width="488" height="6" rx="3" fill="#f59e0b"/>

  <!-- Intercom 3.4 -->
  <text x="200" y="230" text-anchor="end" font-size="17" font-weight="600" fill="#1e293b">Intercom</text>
  <text x="220" y="230" font-size="28" fill="#f59e0b">&#9733;&#9733;&#9733;</text><text x="316" y="230" font-size="28" fill="#e2e8f0">&#9733;&#9733;</text>
  <text x="400" y="230" font-size="20" font-weight="700" fill="#0f2439">3.4</text><text x="435" y="230" font-size="14" fill="#64748b">/5</text>
  <text x="470" y="230" font-size="14" fill="#94a3b8">(6 reviews)*</text>
  <rect x="220" y="240" width="660" height="6" rx="3" fill="#e2e8f0"/><rect x="220" y="240" width="449" height="6" rx="3" fill="#f59e0b"/>

  <!-- ChatBot 2.3 -->
  <text x="200" y="310" text-anchor="end" font-size="17" font-weight="600" fill="#1e293b">ChatBot</text>
  <text x="220" y="310" font-size="28" fill="#f59e0b">&#9733;&#9733;</text><text x="284" y="310" font-size="28" fill="#e2e8f0">&#9733;&#9733;&#9733;</text>
  <text x="400" y="310" font-size="20" font-weight="700" fill="#0f2439">2.3</text><text x="435" y="310" font-size="14" fill="#64748b">/5</text>
  <text x="470" y="310" font-size="14" fill="#94a3b8">(12 reviews)*</text>
  <rect x="220" y="320" width="660" height="6" rx="3" fill="#e2e8f0"/><rect x="220" y="320" width="304" height="6" rx="3" fill="#ef4444"/>

  <!-- Zendesk 1.7 -->
  <text x="200" y="390" text-anchor="end" font-size="17" font-weight="600" fill="#1e293b">Zendesk</text>
  <text x="220" y="390" font-size="28" fill="#f59e0b">&#9733;</text><text x="252" y="390" font-size="28" fill="#e2e8f0">&#9733;&#9733;&#9733;&#9733;</text>
  <text x="400" y="390" font-size="20" font-weight="700" fill="#0f2439">1.7</text><text x="435" y="390" font-size="14" fill="#64748b">/5</text>
  <text x="470" y="390" font-size="14" fill="#94a3b8">(692 reviews)</text>
  <rect x="220" y="400" width="660" height="6" rx="3" fill="#e2e8f0"/><rect x="220" y="400" width="224" height="6" rx="3" fill="#ef4444"/>

  <!-- Drift 1.2 -->
  <text x="200" y="470" text-anchor="end" font-size="17" font-weight="600" fill="#1e293b">Drift (Salesloft)</text>
  <text x="220" y="470" font-size="28" fill="#f59e0b">&#9733;</text><text x="252" y="470" font-size="28" fill="#e2e8f0">&#9733;&#9733;&#9733;&#9733;</text>
  <text x="400" y="470" font-size="20" font-weight="700" fill="#0f2439">1.2</text><text x="435" y="470" font-size="14" fill="#64748b">/5</text>
  <text x="470" y="470" font-size="14" fill="#94a3b8">(165 reviews)</text>
  <rect x="220" y="480" width="660" height="6" rx="3" fill="#e2e8f0"/><rect x="220" y="480" width="158" height="6" rx="3" fill="#ef4444"/>

  <text x="600" y="540" text-anchor="middle" font-size="12" fill="#94a3b8">*Intercom (6) en ChatBot (12) hebben te weinig reviews voor een representatieve score</text>
  <text x="600" y="570" text-anchor="middle" font-size="13" fill="#94a3b8">Trustpilot scores gecheckt maart 2026 | bedrijfssoftwaregids.nl</text>
</svg>